<svg width="64" height="64" viewBox="0 0 64 64" fill="none" xmlns="http://www.w3.org/2000/svg">
<path d="M16.1904 25.1914L16.1904 3.92049L37.7674 3.92049" stroke="white" stroke-width="7.72482"/>
<path d="M39.5608 10.4555C40.8947 10.9786 42.0908 11.6973 43.1311 12.5656L38.4622 18.2432C38.0005 17.849 37.4692 17.5252 36.879 17.2938C33.9962 16.1633 30.6484 17.5973 29.459 20.6302C28.2696 23.663 29.7502 26.9904 32.633 28.121C35.5157 29.2514 38.8636 27.8176 40.053 24.7847L40.1068 24.6424C40.6747 23.081 40.5437 21.4523 39.8863 20.0933L46.3999 16.6919C48.0297 19.9289 48.3167 23.8319 46.8913 27.4664C44.2546 34.19 36.6962 37.6044 29.9513 34.9595C23.2591 32.3351 20.0345 24.7912 22.5599 18.1062L22.6207 17.9485C25.2574 11.2249 32.8159 7.81046 39.5608 10.4555Z" fill="white"/>
<path d="M23.1088 60.0791L44.4941 59.9495L44.4941 41.0497L23.1088 41.0497" stroke="white" stroke-width="7.72482"/>
</svg>
