<svg width="52" height="19" viewBox="0 0 52 19" fill="none" xmlns="http://www.w3.org/2000/svg">
<path d="M10.464 18.56C10.1227 18.5387 9.824 18.368 9.568 18.048C9.33333 17.7067 9.16267 17.3227 9.056 16.896C8.84267 16.192 8.736 15.4133 8.736 14.56C8.736 13.728 8.864 12.48 9.12 10.816C9.35467 9.28 9.472 8.10667 9.472 7.296L10.08 3.616L7.744 4.8C7.33867 5.03467 6.98667 5.32267 6.688 5.664C6.38933 6.00533 6.016 6.48533 5.568 7.104C5.12 7.744 4.736 8.24533 4.416 8.608C4.096 8.97067 3.712 9.248 3.264 9.44C3.24267 9.44 3.15733 9.504 3.008 9.632C2.85867 9.76 2.73067 9.824 2.624 9.824C2.38933 9.824 2.10133 9.70667 1.76 9.472C1.41867 9.23733 1.152 9.024 0.96 8.832C0.896 8.72533 0.810667 8.56533 0.704 8.352C0.597334 8.13867 0.522667 8.01067 0.48 7.968C0.437334 7.94667 0.341334 7.91467 0.192 7.872C0.0640001 7.808 0 7.75467 0 7.712V7.648C0 7.584 0 7.50933 0 7.424C0.0213334 7.33867 0.0426668 7.28533 0.0640001 7.264C0.106667 7.2 0.202667 7.15733 0.352 7.136C0.522667 7.09333 0.629333 7.05067 0.672 7.008C0.714667 6.98667 0.874667 6.784 1.152 6.4C1.32267 6.12267 1.472 5.92 1.6 5.792C3.584 3.744 5.952 2.15467 8.704 1.024C8.98133 0.917334 9.26933 0.832 9.568 0.768C9.888 0.682666 10.208 0.576 10.528 0.448C10.848 0.32 11.1253 0.170667 11.36 0L12.416 0.576L12.352 0.704C12.7787 0.768001 13.12 0.896001 13.376 1.088C13.632 1.25867 13.9733 1.54667 14.4 1.952L14.08 3.104L14.336 3.2L14.208 3.616L14.56 3.456L14.592 3.648L14.432 3.616L14.336 4.512L14.592 4.608L14.048 7.296L13.792 7.488C13.8987 7.53067 13.952 7.60533 13.952 7.712C13.952 7.84 13.8987 7.97867 13.792 8.128C13.6853 8.256 13.5787 8.34133 13.472 8.384L13.664 8.544L13.472 8.736L13.728 9.088L13.312 9.312L13.472 9.792L13.248 10.016C13.3333 10.08 13.376 10.1653 13.376 10.272C13.376 10.4427 13.2907 10.656 13.12 10.912C12.9707 11.168 12.8533 11.3173 12.768 11.36L13.056 11.744L12.672 12.544L12.64 14.272L12.224 14.464C12.288 14.8267 12.2347 15.1893 12.064 15.552C11.8933 15.8933 11.6373 16.0853 11.296 16.128L11.264 16.48L11.552 16.608L10.976 16.672L11.232 17.12L10.752 17.44L10.816 17.696C10.816 17.7813 10.7733 17.8667 10.688 17.952C10.624 18.016 10.56 18.1013 10.496 18.208C10.4533 18.2933 10.4427 18.4107 10.464 18.56Z" fill="black"/>
<path d="M25.3638 16.224C24.5958 16.544 23.8811 16.704 23.2198 16.704C22.3025 16.704 21.5025 16.4373 20.8198 15.904C20.1371 15.3707 19.6038 14.6667 19.2198 13.792C18.8571 12.896 18.6758 11.936 18.6758 10.912C18.6758 9.73867 18.9105 8.608 19.3798 7.52C19.8705 6.41067 20.5211 5.25867 21.3318 4.064C21.4171 3.936 21.5025 3.808 21.5878 3.68C21.6731 3.53067 21.7798 3.424 21.9078 3.36L21.6838 2.816L23.9558 0.416C23.9985 0.394667 24.1265 0.448001 24.3398 0.576C24.5531 0.682667 24.7025 0.757334 24.7878 0.800001C26.2171 1.65333 27.2731 2.22933 27.9558 2.528H28.0198L28.2758 2.496V2.56C28.2758 2.70933 28.3078 2.79467 28.3718 2.816L28.6598 2.784C28.8518 2.784 29.0331 2.82667 29.2038 2.912C31.6571 3.936 32.8838 5.41867 32.8838 7.36C32.8838 8.46933 32.4998 9.62133 31.7318 10.816C30.9638 11.9893 29.9931 13.0667 28.8198 14.048C27.6678 15.008 26.5158 15.7333 25.3638 16.224ZM21.6838 14.432C22.0251 14.4533 22.3665 14.4 22.7078 14.272C23.0705 14.1227 23.4331 13.9307 23.7958 13.696C24.1585 13.4613 24.4891 13.2373 24.7878 13.024C25.8758 12.256 26.8358 11.3707 27.6678 10.368C28.5211 9.36533 28.9478 8.352 28.9478 7.328C28.9478 7.09333 28.9158 6.848 28.8518 6.592C28.7878 6.29333 28.5745 5.888 28.2118 5.376C27.8491 4.84267 27.5291 4.58667 27.2518 4.608L27.5718 4.352L26.5798 3.776L26.5158 3.68C26.4518 3.76533 26.3345 3.872 26.1638 4C25.9931 4.10667 25.8438 4.20267 25.7158 4.288C25.0971 4.94933 24.2865 6.06933 23.2838 7.648C22.3025 9.22667 21.7371 10.368 21.5878 11.072C21.5451 11.2213 21.4918 11.5093 21.4278 11.936C21.3851 12.3627 21.3638 12.768 21.3638 13.152C21.3638 13.92 21.4705 14.3467 21.6838 14.432Z" fill="black"/>
<path d="M39.0078 17.728C38.9438 17.5147 38.7838 17.216 38.5278 16.832C38.3571 16.576 38.2185 16.352 38.1118 16.16C38.0265 15.968 37.9731 15.7333 37.9518 15.456C37.9305 15.0293 38.1011 14.4747 38.4638 13.792C38.8265 13.1093 39.3811 12.2027 40.1278 11.072C41.1731 9.49333 41.7811 8.43733 41.9518 7.904L42.8798 6.624C42.8371 6.53867 42.7838 6.50667 42.7198 6.528C42.6558 6.528 42.5918 6.53867 42.5278 6.56C42.4638 6.58133 42.0691 6.784 41.3438 7.168C40.6185 7.53067 40.0745 7.81867 39.7118 8.032C39.6051 8.096 39.4878 8.20267 39.3598 8.352C39.2318 8.48 39.1145 8.56533 39.0078 8.608C38.9225 8.65067 38.8051 8.65067 38.6558 8.608C38.5705 8.58667 38.1758 8.26667 37.4718 7.648C36.7891 7.02933 36.4265 6.688 36.3838 6.624V6.432C36.8745 6.09067 37.3331 5.76 37.7598 5.44C38.3998 4.928 38.9011 4.56533 39.2638 4.352C40.0958 3.81867 40.9278 3.37067 41.7598 3.008C42.5918 2.624 43.6051 2.208 44.7998 1.76C45.8878 1.35467 46.9225 0.928 47.9038 0.48C47.9251 0.48 47.9465 0.448 47.9678 0.384001C47.9891 0.298667 48.0211 0.245334 48.0638 0.224001L48.9278 0.288L48.9598 0.48L49.4718 0.288V0.544001C49.7278 0.544001 49.9411 0.608 50.1118 0.736C50.2825 0.864 50.4531 1.056 50.6238 1.312C50.7945 1.568 50.9331 1.73867 51.0398 1.824L50.5918 2.176L51.0398 2.528L50.4638 2.592L50.3358 2.88L50.4958 3.424C49.4078 3.57333 48.4585 4.02133 47.6478 4.768C47.0505 5.344 46.4958 6.03733 45.9838 6.848C45.4718 7.63733 44.9065 8.62933 44.2878 9.824C43.7971 10.784 43.4878 11.36 43.3598 11.552C43.3385 11.5947 43.2851 11.648 43.1998 11.712C43.1358 11.776 43.0931 11.84 43.0718 11.904C43.0718 11.9467 43.1038 12.032 43.1678 12.16L42.7838 12.224L41.6638 14.112C42.7945 13.664 43.9465 13.2907 45.1198 12.992C46.3145 12.6933 47.7011 12.384 49.2798 12.064L50.4638 11.808C50.5065 11.7867 50.5598 11.744 50.6238 11.68C50.6878 11.5947 50.7305 11.5307 50.7518 11.488C50.9651 11.4667 51.1465 11.5307 51.2958 11.68C51.4665 11.8293 51.5518 12 51.5518 12.192C51.5518 12.256 51.5305 12.352 51.4878 12.48C51.4451 12.5013 51.3918 12.5227 51.3278 12.544C51.2638 12.544 51.2211 12.5653 51.1998 12.608C51.1785 12.6507 51.1571 12.768 51.1358 12.96C51.1145 13.1307 51.0718 13.2373 51.0078 13.28C50.9865 13.3013 50.9545 13.312 50.9118 13.312C50.8691 13.312 50.8158 13.312 50.7518 13.312C50.7091 13.312 50.6665 13.3227 50.6238 13.344C50.1331 13.7707 49.5465 14.144 48.8638 14.464C48.2025 14.7627 47.3065 15.1253 46.1758 15.552L44.7678 16.096C44.5331 16.2027 44.2878 16.32 44.0318 16.448C43.7971 16.5547 43.5625 16.6613 43.3278 16.768C42.5171 17.152 41.8345 17.4507 41.2798 17.664C40.7251 17.856 40.1385 17.984 39.5198 18.048L39.0078 17.728Z" fill="black"/>
</svg>
